<svg width="179" height="10" viewBox="0 0 179 10" xmlns="http://www.w3.org/2000/svg"><title>ic_logo_tata_wht_sml</title><g fill="#4E84C4" fill-rule="evenodd"><path d="M9.089 2.664V.184H.645v2.48h2.474v6.273h3.495V2.664h2.475zm4.367 1.021l-1.892 5.252H8.215L11.564.184h3.64l3.348 8.753h-3.349l-1.747-5.252zm12.885-1.021V.184h-8.444v2.48h2.474v6.273h3.495V2.664h2.475zm4.367 1.021l-1.893 5.252h-3.348L28.815.184h3.64l3.349 8.753h-3.349l-1.747-5.252zM46.504 7.624a6.245 6.245 0 0 1-1.747.292c-1.892 0-3.057-1.313-3.057-3.21 0-2.042 1.31-3.21 3.057-3.21.728 0 1.31.147 1.747.292l.291-1.167c-.29-.146-1.019-.437-2.183-.437-2.62 0-4.66 1.75-4.66 4.668 0 2.626 1.748 4.377 4.514 4.377 1.02 0 1.893-.146 2.184-.438l-.146-1.167zm4.877 1.605c2.33 0 4.077-1.605 4.077-4.669 0-2.48-1.456-4.376-3.931-4.376s-4.222 1.896-4.222 4.522c-.073 2.626 1.529 4.523 4.076 4.523zm0-1.313c-1.455 0-2.329-1.459-2.329-3.21 0-1.75.728-3.21 2.33-3.21 1.6 0 2.474 1.46 2.474 3.21 0 1.751-.873 3.21-2.475 3.21zm6.989 1.167V6.02c0-1.459 0-2.626-.146-3.793h.146c.436 1.021 1.019 2.043 1.455 3.064l2.33 3.793h1.747V.33H62.3v3.063c0 1.313.146 2.48.146 3.648-.437-1.022-.874-2.043-1.456-2.918L58.66.33h-1.746v8.753h1.456zm6.988-.437c.436.291 1.31.583 2.329.583 2.184 0 3.203-1.167 3.203-2.626 0-1.313-.728-2.043-2.184-2.626-1.165-.438-1.747-.73-1.747-1.46 0-.437.582-1.02 1.456-1.02.873 0 1.456.291 1.747.437l.437-1.313C70.162.33 69.434.184 68.56.184c-1.893 0-3.203 1.02-3.203 2.48 0 1.313 1.019 2.042 2.475 2.626 1.019.292 1.455.73 1.455 1.459 0 .73-.582 1.167-1.601 1.167-.728 0-1.601-.292-2.038-.584l-.291 1.314zM72.346.33v4.96c0 2.772 1.31 3.94 3.348 3.94 2.184 0 3.494-1.168 3.494-3.94V.33h-1.601v5.106c0 1.75-.728 2.48-1.893 2.48-1.019 0-1.747-.73-1.747-2.48V.33h-1.601zm8.808 8.753h5.095V7.77h-3.494V.33h-1.601v8.753zm6.697 0h1.601v-7.44h2.62V.33h-6.696v1.313h2.475v7.44zm8.735-2.48l.873 2.48h1.602L96.295.33h-2.038L91.49 9.083h1.602l.728-2.48h2.766zM94.11 5.436l.582-2.189c.291-.583.437-1.167.437-1.604h.146c.145.437.145 1.02.436 1.604l.583 2.189H94.11zm7.716 3.647V6.02c0-1.459 0-2.626-.146-3.793h.146c.291 1.021.874 2.043 1.456 3.064l2.33 3.793h1.6V.33h-1.455v3.063c0 1.313 0 2.48.145 3.648-.436-1.022-.873-2.043-1.455-2.918L102.118.33h-1.747v8.753h1.456zm13.321-1.459a5.42 5.42 0 0 1-1.747.292c-1.892 0-3.057-1.313-3.057-3.21 0-2.042 1.31-3.21 3.057-3.21.728 0 1.31.147 1.747.292l.291-1.167c-.29-.146-1.019-.437-2.038-.437-2.62 0-4.659 1.75-4.659 4.668 0 2.626 1.602 4.377 4.368 4.377 1.165 0 1.893-.146 2.33-.438l-.292-1.167zm5.241 1.46V5.435L123.301.33h-1.893l-1.019 2.188c-.29.73-.436 1.167-.728 1.75-.29-.583-.436-1.02-.728-1.75L117.914.33h-1.892l2.766 5.106v3.647h1.601zm6.115-.438a5.62 5.62 0 0 0 2.475.583c2.184 0 3.203-1.167 3.203-2.626 0-1.313-.728-2.043-2.184-2.626-1.165-.438-1.747-.73-1.747-1.46 0-.437.437-1.02 1.456-1.02.873 0 1.456.291 1.747.437l.437-1.313c-.437-.291-1.165-.437-2.184-.437-1.893 0-3.057 1.02-3.057 2.48 0 1.313 1.019 2.042 2.329 2.626 1.165.292 1.601.73 1.601 1.459 0 .73-.582 1.167-1.601 1.167-.728 0-1.602-.292-2.038-.584l-.437 1.314zM138.66 3.83h-3.348V1.643h3.494V.33h-5.096v8.753h5.242V7.77h-3.64V5.144h3.348V3.831zm1.747 5.252h1.602V5.436h.728c1.019.146 1.456.438 1.601 1.605.291 1.021.437 1.75.583 2.042h1.601c-.146-.292-.291-1.313-.582-2.48-.291-.875-.583-1.459-1.31-1.605v-.146c.873-.292 1.6-1.021 1.6-2.188 0-.73-.29-1.313-.727-1.75-.582-.439-1.456-.584-2.62-.584-1.02 0-1.893 0-2.476.145v8.608zm1.602-7.586h1.019c1.02 0 1.601.437 1.601 1.313 0 .875-.582 1.459-1.747 1.459h-.873V1.497zm9.609 7.586L154.675.33h-1.747l-1.165 3.939c-.437 1.167-.728 2.188-.873 3.21h-.146c-.146-1.022-.437-2.043-.728-3.21l-1.31-3.94h-1.747l2.912 8.754h1.747zm5.677 0V.33h-1.601v8.753h1.601zm7.79-1.459a5.42 5.42 0 0 1-1.748.292c-1.892 0-3.057-1.313-3.057-3.21.146-2.042 1.31-3.21 3.057-3.21.728 0 1.31.147 1.747.292l.437-1.167c-.437-.146-1.165-.437-2.184-.437-2.62 0-4.658 1.75-4.658 4.668 0 2.626 1.601 4.377 4.513 4.377 1.019 0 1.892-.146 2.183-.438l-.29-1.167zm6.55-3.793h-3.348V1.643h3.494V.33h-5.095v8.753h5.386V7.77h-3.785V5.144h3.349V3.831zm1.457 4.815c.436.291 1.455.583 2.329.583 2.184 0 3.348-1.167 3.348-2.626 0-1.313-.728-2.043-2.329-2.626-1.165-.438-1.601-.73-1.601-1.46 0-.437.436-1.02 1.455-1.02.728 0 1.31.291 1.747.437l.292-1.313c-.437-.291-1.165-.437-2.039-.437-1.892 0-3.057 1.02-3.057 2.48 0 1.313.874 2.042 2.33 2.626 1.019.292 1.455.73 1.455 1.459 0 .73-.436 1.167-1.455 1.167-.874 0-1.602-.292-2.184-.584l-.291 1.314z"/></g></svg>